<svg xmlns="http://www.w3.org/2000/svg" width="49" height="37" viewBox="0 0 49 37">
  <defs>
    <style>
      .cls-1 {
        fill: #ffc000;
        fill-rule: evenodd;
      }
    </style>
  </defs>
  <path id="Forma_1" data-name="Forma 1" class="cls-1" d="M964.129,1386.31H920.871a2.845,2.845,0,1,0,0,5.69h43.258A2.845,2.845,0,1,0,964.129,1386.31Zm-8.709-24.17v5.67a1.436,1.436,0,0,1-2.871,0v-7.49a20.736,20.736,0,0,0-2.871-1.23v11.56a1.436,1.436,0,0,1-2.871,0v-14.23a1.431,1.431,0,0,0-1.436-1.42h-5.742a1.431,1.431,0,0,0-1.436,1.42v14.23a1.436,1.436,0,0,1-2.871,0v-11.56a20.736,20.736,0,0,0-2.871,1.23v7.49a1.436,1.436,0,0,1-2.871,0v-5.67a21.235,21.235,0,0,0-8.613,17.05v4.27h43.066v-4.27A21.237,21.237,0,0,0,955.42,1362.14Z" transform="translate(-918 -1355)"/>
</svg>
