<svg xmlns="http://www.w3.org/2000/svg" width="34" height="38" viewBox="0 0 34 38">
  <defs>
    <style>
      .cls-1 {
        fill: #ffc000;
        fill-rule: evenodd;
      }
    </style>
  </defs>
  <path id="Forma_1" data-name="Forma 1" class="cls-1" d="M663.045,1376.99H652.957a0.615,0.615,0,0,0-.623.61v1.01a1.067,1.067,0,0,0,.332.78l1.838,1.8-1.259,6.15a4.642,4.642,0,0,0,1.006,3.93,4.929,4.929,0,0,0,7.5,0,4.642,4.642,0,0,0,1.006-3.93l-1.259-6.15,1.838-1.8a0.764,0.764,0,0,0,.317-0.63v-0.79A1.025,1.025,0,0,0,663.045,1376.99Zm8.555-17.56h-1.133v-1.11a3.355,3.355,0,0,0-3.4-3.32H644.4a3.355,3.355,0,0,0-3.4,3.32v4.43a3.361,3.361,0,0,0,3.4,3.32h1.133v4.42a2.267,2.267,0,0,0,4.534,0v-3.32a1.133,1.133,0,0,1,2.266,0v1.11a2.268,2.268,0,0,0,4.534,0v-2.21h10.2a3.361,3.361,0,0,0,3.4-3.32v-1.11H671.6a1.111,1.111,0,0,1,1.133,1.11v2.76a1.132,1.132,0,0,1-.816,1.07l-12.58,3.49a3.377,3.377,0,0,0-2.47,3.19v1.43h2.266v-1.43a1.111,1.111,0,0,1,.816-1.06l12.58-3.5a3.376,3.376,0,0,0,2.471-3.19v-2.76A3.355,3.355,0,0,0,671.6,1359.43Z" transform="translate(-641 -1355)"/>
</svg>
