<svg xmlns="http://www.w3.org/2000/svg" width="38" height="38" viewBox="0 0 38 38">
  <defs>
    <style>
      .cls-1 {
        fill: #ffc000;
        fill-rule: evenodd;
      }
    </style>
  </defs>
  <path id="Forma_1" data-name="Forma 1" class="cls-1" d="M1229,1368.43a4.455,4.455,0,1,0,4.45,4.46A4.456,4.456,0,0,0,1229,1368.43Zm18.07,2.25-2.96-.49a15.3,15.3,0,0,0-1.74-4.18l1.7-2.38a1.121,1.121,0,0,0-.11-1.44l-3.15-3.15a1.135,1.135,0,0,0-1.44-.12l-2.38,1.7a15.586,15.586,0,0,0-4.18-1.73l-0.49-2.96a1.1,1.1,0,0,0-1.09-.93h-4.46a1.1,1.1,0,0,0-1.09.93l-0.49,2.96a15.3,15.3,0,0,0-4.18,1.74l-2.38-1.71a1.135,1.135,0,0,0-1.44.12l-3.15,3.15a1.135,1.135,0,0,0-.12,1.44l1.71,2.38a15.3,15.3,0,0,0-1.74,4.18l-2.96.49a1.1,1.1,0,0,0-.93,1.09v4.46a1.1,1.1,0,0,0,.93,1.09l2.96,0.49a15.3,15.3,0,0,0,1.74,4.18l-1.71,2.38a1.135,1.135,0,0,0,.12,1.44l3.15,3.15a1.121,1.121,0,0,0,1.44.11l2.38-1.7a15.3,15.3,0,0,0,4.18,1.74l0.49,2.96a1.1,1.1,0,0,0,1.09.93h4.46a1.1,1.1,0,0,0,1.09-.93l0.49-2.96a15.3,15.3,0,0,0,4.18-1.74l2.38,1.7a1.121,1.121,0,0,0,1.44-.11l3.15-3.15a1.135,1.135,0,0,0,.12-1.44l-1.71-2.38a15.228,15.228,0,0,0,1.74-4.19l2.96-.48a1.1,1.1,0,0,0,.93-1.09v-4.46A1.1,1.1,0,0,0,1247.07,1370.68ZM1229,1386.25a12.25,12.25,0,1,1,12.25-12.25A12.27,12.27,0,0,1,1229,1386.25Zm5.14-9.15a6.583,6.583,0,0,1-10.28,0,7.8,7.8,0,0,0-2.28,3.57,9.892,9.892,0,0,0,14.84,0A7.8,7.8,0,0,0,1234.14,1377.1Z" transform="translate(-1210 -1355)"/>
</svg>
